<?xml version="1.0" encoding="utf-8"?>
<!-- Generator: Adobe Illustrator 26.4.1, SVG Export Plug-In . SVG Version: 6.00 Build 0)  -->
<svg version="1.1" id="_x34_6_x5F_agile_x5F_development"
	 xmlns="http://www.w3.org/2000/svg" xmlns:xlink="http://www.w3.org/1999/xlink" x="0px" y="0px" width="64px" height="64px"
	 viewBox="0 0 64 64" style="enable-background:new 0 0 64 64;" xml:space="preserve">
<style type="text/css">
	.st0{fill:#122130;}
</style>
<g>
	<path class="st0" d="M63.7,58.3l-4-4c-0.4-0.4-1-0.4-1.4,0s-0.4,1,0,1.4l2.3,2.3H47v2h13.6l-2.3,2.3c-0.4,0.4-0.4,1,0,1.4
		c0.2,0.2,0.5,0.3,0.7,0.3s0.5-0.1,0.7-0.3l4-4C64.1,59.3,64.1,58.7,63.7,58.3z"/>
	<path class="st0" d="M60,32C60,17.3,48.7,5.3,34.3,4.1l2.4-2.4c0.4-0.4,0.4-1,0-1.4s-1-0.4-1.4,0l-4,4c-0.4,0.4-0.4,1,0,1.4l4,4
		C35.5,9.9,35.7,10,36,10s0.5-0.1,0.7-0.3c0.4-0.4,0.4-1,0-1.4l-2.2-2.2C47.7,7.4,58,18.5,58,32c0,14.3-11.7,26-26,26H0v2h32
		C47.4,60,60,47.4,60,32z"/>
	<path class="st0" d="M17.5,55.9l1-1.7C10.7,49.5,6,41.2,6,32C6,19.5,14.9,8.7,27.3,6.4l-0.4-2C13.6,6.9,4,18.5,4,32
		C4,41.9,9,50.8,17.5,55.9z"/>
	<path class="st0" d="M48,32c0,8.8-7.2,16-16,16s-16-7.2-16-16c0-6.6,4.2-12.6,10.4-15l-0.7-1.9C18.7,17.8,14,24.6,14,32
		c0,9.9,8.1,18,18,18s18-8.1,18-18c0-7.4-4.7-14.2-11.6-16.8L37.6,17C43.8,19.4,48,25.4,48,32z"/>
	<path class="st0" d="M31,18.1c-7.3,0.5-13,6.6-13,13.9c0,7.7,6.3,14,14,14s14-6.3,14-14c0-7.4-5.7-13.4-13-13.9V16h2v-2h-6v2h2
		V18.1z M44,32c0,6.6-5.4,12-12,12s-12-5.4-12-12s5.4-12,12-12S44,25.4,44,32z"/>
	<rect x="31" y="22" class="st0" width="2" height="2"/>
	<rect x="22" y="31" class="st0" width="2" height="2"/>
	<rect x="31" y="40" class="st0" width="2" height="2"/>
	<rect x="40" y="31" class="st0" width="2" height="2"/>
	<path class="st0" d="M32,28c-2.2,0-4,1.8-4,4s1.8,4,4,4s4-1.8,4-4c0-0.7-0.2-1.4-0.6-2l4.3-4.3l-1.4-1.4L34,28.6
		C33.4,28.2,32.7,28,32,28z M32,34c-1.1,0-2-0.9-2-2s0.9-2,2-2c1.1,0,2,0.9,2,2C34,33.1,33.1,34,32,34z"/>
</g>
</svg>
