<?xml version="1.0" encoding="utf-8"?>
<!-- Generator: Adobe Illustrator 26.4.1, SVG Export Plug-In . SVG Version: 6.00 Build 0)  -->
<svg version="1.1" id="_x31_8_x5F_packaging_x5F_box"
	 xmlns="http://www.w3.org/2000/svg" xmlns:xlink="http://www.w3.org/1999/xlink" x="0px" y="0px" width="64px" height="60px"
	 viewBox="0 0 64 60" style="enable-background:new 0 0 64 60;" xml:space="preserve">
<style type="text/css">
	.st0{fill:#122130;}
</style>
<g>
	<g>
		<g>
			<path class="st0" d="M31.6,59.9l-24-9C7.3,50.8,7,50.4,7,50v-6h2v5.3l23.4,8.8L31.6,59.9z"/>
			<path class="st0" d="M32,60c-0.2,0-0.4-0.1-0.6-0.2C31.2,59.6,31,59.3,31,59V33h2v24.6l22-8.2V44h2v6c0,0.4-0.3,0.8-0.6,0.9
				l-24,9C32.2,60,32.1,60,32,60z"/>
			<path class="st0" d="M24,47c-0.1,0-0.2,0-0.4-0.1l-23-9c-0.3-0.1-0.5-0.3-0.6-0.6c-0.1-0.3-0.1-0.6,0-0.8l7-14l1.8,0.9l-6.5,13
				l21.2,8.3l7.6-12.3l1.7,1l-8,13C24.7,46.8,24.3,47,24,47z"/>
			<path class="st0" d="M40,47c-0.3,0-0.7-0.2-0.9-0.5l-8-13l1.7-1l7.6,12.3l21.2-8.3l-6.5-13l1.8-0.9l7,14c0.1,0.3,0.1,0.5,0,0.8
				c-0.1,0.3-0.3,0.5-0.6,0.6l-23,9C40.2,47,40.1,47,40,47z"/>
			<path class="st0" d="M32,34c-0.1,0-0.3,0-0.4-0.1l-24-10C7.2,23.8,7,23.4,7,23c0-0.4,0.3-0.8,0.7-0.9l20-7l0.7,1.9l-17.5,6.1
				L32,31.9l21.2-8.8l-17.5-6.1l0.7-1.9l20,7c0.4,0.1,0.7,0.5,0.7,0.9c0,0.4-0.2,0.8-0.6,1l-24,10C32.3,34,32.1,34,32,34z"/>
			<path class="st0" d="M56.8,23.6l-1.6-1.2l6.2-7.9L40.4,6.2l-3.6,6.2l-1.7-1l4-7c0.2-0.4,0.8-0.6,1.2-0.4l23,9
				c0.3,0.1,0.5,0.4,0.6,0.7c0.1,0.3,0,0.6-0.2,0.9L56.8,23.6z"/>
			<path class="st0" d="M7.2,23.6l-7-9C0,14.4,0,14,0,13.7c0.1-0.3,0.3-0.6,0.6-0.7l23-9c0.5-0.2,1,0,1.2,0.4l4,7l-1.7,1l-3.6-6.2
				L2.6,14.4l6.2,7.9L7.2,23.6z"/>
			<rect x="31" y="0" class="st0" width="2" height="26"/>
			<path class="st0" d="M32,28c-0.3,0-0.5-0.1-0.7-0.3l-4-4l1.4-1.4l3.3,3.3l3.3-3.3l1.4,1.4l-4,4C32.5,27.9,32.3,28,32,28z"/>
		</g>
	</g>
</g>
</svg>
