<?xml version="1.0" encoding="utf-8"?>
<!-- Generator: Adobe Illustrator 26.4.1, SVG Export Plug-In . SVG Version: 6.00 Build 0)  -->
<svg version="1.1" id="_x30_9_x5F_consulting_x5F_manager"
	 xmlns="http://www.w3.org/2000/svg" xmlns:xlink="http://www.w3.org/1999/xlink" x="0px" y="0px" width="60px" height="64px"
	 viewBox="0 0 60 64" style="enable-background:new 0 0 60 64;" xml:space="preserve">
<style type="text/css">
	.st0{fill:#FFFFFF;}
</style>
<g>
	<path class="st0" d="M57,0H25c-1.7,0-3,1.3-3,3v9h2V3c0-0.6,0.4-1,1-1h32c0.6,0,1,0.4,1,1v20c0,0.6-0.4,1-1,1H41.6l-6.3,6.3
		l1.4,1.4l5.7-5.7H57c1.7,0,3-1.3,3-3V3C60,1.3,58.7,0,57,0z"/>
	<rect x="36" y="12" class="st0" width="2" height="2"/>
	<rect x="40" y="12" class="st0" width="2" height="2"/>
	<rect x="44" y="12" class="st0" width="2" height="2"/>
	<path class="st0" d="M36.8,45.5c-1.7-0.6-3.4-1.3-5.2-2.3l-2.2-3.3L29,40v-2.5c1-0.9,3.2-3.5,4-9.3l0-4.1c0-6.6-3.4-10-10-10
		s-10,3.4-10,10v4l0,0.1c0.8,5.8,3,8.4,4,9.3V40l-0.5-0.1l-2.2,3.3c-1.7,1-3.5,1.6-5.2,2.3C4.4,47.3,0,49,0,57v7h2v-7
		c0-6.6,3.1-7.8,7.9-9.6c1.5-0.6,3.2-1.2,5-2.2l4,4l4.2-2.1l4.2,2.1l4-4c1.7,0.9,3.4,1.6,5,2.2c4.7,1.8,7.9,3,7.9,9.6v7h2v-7
		C46,49,41.6,47.3,36.8,45.5z M23,16c5.3,0,7.8,2.3,8,7.4l-3,1.5l-10-4l-2.9,1.4C15.6,18,18.1,16,23,16z M15,27.9v-3.3l3-1.5l10,4
		l3-1.5v2.3c-0.9,5.9-3.2,8-3.5,8.2C25.7,37,23,37,23,37c0,0-2.7,0-4.5-0.9C18.2,35.9,15.9,33.8,15,27.9z M19,38.4
		c1.9,0.5,3.9,0.6,4,0.6s2.1,0,4-0.6v1.9L23,41l-4-0.7V38.4z M26.8,46.8L23,44.9l-3.8,1.9l-2.9-2.9l1.2-1.8L23,43l5.5-0.9l1.2,1.8
		L26.8,46.8z"/>
	<rect x="22" y="54" class="st0" width="2" height="2"/>
	<rect x="22" y="50" class="st0" width="2" height="2"/>
	<rect x="8" y="58" class="st0" width="2" height="6"/>
	<rect x="36" y="58" class="st0" width="2" height="6"/>
</g>
</svg>
