<?xml version="1.0" encoding="utf-8"?>
<!-- Generator: Adobe Illustrator 26.4.1, SVG Export Plug-In . SVG Version: 6.00 Build 0)  -->
<svg version="1.1" id="_x31_9_x5F_web_x5F_coding" xmlns="http://www.w3.org/2000/svg" xmlns:xlink="http://www.w3.org/1999/xlink"
	 x="0px" y="0px" width="64px" height="64px" viewBox="0 0 64 64" style="enable-background:new 0 0 64 64;" xml:space="preserve">
<style type="text/css">
	.st0{fill:#122130;}
</style>
<g>
	<path class="st0" d="M31,32c0-2.2-1.8-4-4-4h-1c-2.2,0-4,1.8-4,4v8c0,2.2,1.8,4,4,4h1c2.2,0,4-1.8,4-4V32z M29,40c0,1.1-0.9,2-2,2
		h-1c-1.1,0-2-0.9-2-2v-8c0-1.1,0.9-2,2-2h1c1.1,0,2,0.9,2,2V40z"/>
	<path class="st0" d="M38,28h-5v16h5c2.2,0,4-1.8,4-4v-8C42,29.8,40.2,28,38,28z M40,40c0,1.1-0.9,2-2,2h-3V30h3c1.1,0,2,0.9,2,2V40
		z"/>
	<path class="st0" d="M44,30v12c0,1.1,0.9,2,2,2h7v-2h-7v-5h5v-2h-5v-5h7v-2h-7C44.9,28,44,28.9,44,30z"/>
	<path class="st0" d="M17,28h-3c-1.7,0-3,1.3-3,3v10c0,1.7,1.3,3,3,3h3c1.7,0,3-1.3,3-3v-1h-2v1c0,0.6-0.4,1-1,1h-3
		c-0.6,0-1-0.4-1-1V31c0-0.6,0.4-1,1-1h3c0.6,0,1,0.4,1,1v1h2v-1C20,29.3,18.7,28,17,28z"/>
	<path class="st0" d="M0,0v64h64V0H0z M62,8H18V2h44V8z M16,2v6H2V2H16z M2,62V10h60v52H2z"/>
	<rect x="4" y="4" class="st0" width="2" height="2"/>
	<rect x="8" y="4" class="st0" width="2" height="2"/>
	<rect x="12" y="4" class="st0" width="2" height="2"/>
	<rect x="20" y="4" class="st0" width="40" height="2"/>
	<path class="st0" d="M4,60h56V12H4V60z M6,14h52v44H6V14z"/>
	<rect x="27" y="22" class="st0" width="2" height="2"/>
	<rect x="31" y="22" class="st0" width="2" height="2"/>
	<rect x="35" y="22" class="st0" width="2" height="2"/>
	<rect x="27" y="48" class="st0" width="2" height="2"/>
	<rect x="31" y="48" class="st0" width="2" height="2"/>
	<rect x="35" y="48" class="st0" width="2" height="2"/>
</g>
</svg>
