<?xml version="1.0" encoding="utf-8"?>
<!-- Generator: Adobe Illustrator 26.4.1, SVG Export Plug-In . SVG Version: 6.00 Build 0)  -->
<svg version="1.1" id="_x34_6_x5F_agile_x5F_development"
	 xmlns="http://www.w3.org/2000/svg" xmlns:xlink="http://www.w3.org/1999/xlink" x="0px" y="0px" width="64px" height="64px"
	 viewBox="0 0 64 64" style="enable-background:new 0 0 64 64;" xml:space="preserve">
<style type="text/css">
	.st0{fill:#FFFFFF;}
</style>
<g>
	<path class="st0" d="M32,0c-9.4,0-17,7.6-17,17v46c0,0.6,0.4,1,1,1H48c0.6,0,1-0.4,1-1V17C49,7.6,41.4,0,32,0z M23.4,49.2v-2.3h6.6
		v2.3H23.4z M29.9,51.2v2.3h-6.6v-2.3H29.9z M23.4,44.9v-2.3h6.6v2.3H23.4z M23.4,40.6v-2.3h6.6v2.3H23.4z M23.4,36.3v-2.3h6.6v2.3
		H23.4z M23.4,55.4h6.6v2.3h-6.6V55.4z M29.9,32.1h-6.6v-2.3h6.6V32.1z M23.4,61.9v-2.2h6.6v2.2c0,0,0,0,0,0.1L23.4,61.9
		C23.4,62,23.4,62,23.4,61.9z M29.9,27.8h-6.6v-2.3h6.6V27.8z M17,23.5v-2.3H47v2.3H17z M32,2c8.3,0,15,6.7,15,15v2.2H17V17
		C17,8.7,23.7,2,32,2z M17,25.5h4.4v36.4c0,0,0,0,0,0.1H17V25.5z M31.9,62C31.9,62,31.9,62,31.9,62l0-36.5H47V62H31.9z"/>
	<path class="st0" d="M22.3,11.3c0.1,0,0.2,0.1,0.3,0.1c0.4,0,0.8-0.3,0.9-0.7c0.3-0.8,0.8-1.5,1.5-2.1c0.8-0.7,1.9-1,2.9-1
		c0.6,0,1-0.4,1-1s-0.4-1-1-1c-1.5,0-3,0.5-4.2,1.5c-1,0.8-1.7,1.8-2.1,3C21.5,10.6,21.8,11.2,22.3,11.3z"/>
</g>
</svg>
